<svg width="314" height="32" viewBox="0 0 314 32" fill="none" xmlns="http://www.w3.org/2000/svg">
<path d="M23.6716 8.16669C21.8086 8.16669 20.1169 9.2257 18.7565 10.4791C17.6332 11.514 16.6875 12.726 15.9981 13.7224C15.244 12.6389 14.2684 11.4038 13.1329 10.3762C11.7814 9.15323 10.1398 8.16669 8.32838 8.16669C4.53844 8.16669 1.5 11.4056 1.5 15.3334C1.5 19.2611 4.53745 22.5 8.32838 22.5C10.1914 22.5 11.8831 21.441 13.2435 20.1877C14.3652 19.1542 15.3099 17.9441 15.9991 16.9484C16.755 18.0466 17.7319 19.2827 18.869 20.3072C20.2217 21.5259 21.8624 22.5 23.6716 22.5C27.4616 22.5 30.5 19.2611 30.5 15.3334C30.5 11.4056 27.4626 8.16669 23.6716 8.16669ZM8.32838 20.7157C5.55824 20.7157 3.25676 18.3262 3.25676 15.3334C3.25676 12.3404 5.55734 9.951 8.32838 9.951C9.69157 9.951 11.0712 10.8221 12.3088 12.0277C13.4222 13.1124 14.3502 14.3988 14.9591 15.3365C14.3542 16.2879 13.4281 17.5745 12.315 18.6547C11.0799 19.8532 9.69852 20.7157 8.32838 20.7157ZM23.6716 20.7157C22.3084 20.7157 20.9288 19.8447 19.6912 18.639C18.5788 17.5553 17.6514 16.2702 17.0426 15.3327C17.6489 14.3951 18.5738 13.1103 19.6853 12.0271C20.9216 10.8221 22.3027 9.951 23.6716 9.951C26.4418 9.951 28.7432 12.3405 28.7432 15.3334C28.7432 18.3264 26.4444 20.7157 23.6716 20.7157Z" fill="#3B82F6" stroke="#3B82F6"/>
<g clip-path="url(#clip0_42_3767)">
<path d="M64.6676 11.4292C65.4204 11.3803 66.1739 11.5155 66.8643 11.8232C67.5545 12.1309 68.1616 12.6022 68.6339 13.1972C69.3657 14.1807 69.7433 15.3876 69.704 16.6179V26.9015C69.704 30.6541 73.335 30.6541 73.335 30.6541V16.4808C73.3819 15.3312 73.1902 14.1844 72.7725 13.1143C72.3548 12.0441 71.7202 11.0743 70.9095 10.2673C70.0733 9.48002 69.0911 8.86808 68.0197 8.46677C66.9484 8.06546 65.8091 7.88273 64.6676 7.92912C63.5382 7.88235 62.4107 8.06234 61.3504 8.4587C60.2901 8.85506 59.3179 9.45994 58.4899 10.2384C57.6609 11.0404 57.0106 12.012 56.5826 13.0885C56.1545 14.165 55.9583 15.3215 56.0074 16.4808V30.6541H59.6312V16.589C59.5902 15.3562 59.9734 14.1471 60.7155 13.1684C61.1875 12.5784 61.7932 12.1122 62.4812 11.8094C63.1692 11.5067 63.9192 11.3762 64.6676 11.4292Z" fill="#3B82F6"/>
<path d="M97.7546 20.1071C97.7546 16.3112 96.8699 13.3091 95.1302 11.173C94.2267 10.0882 93.0899 9.22841 91.8058 8.66022C90.5217 8.09203 89.125 7.83077 87.7253 7.89671C86.2746 7.84589 84.8314 8.12488 83.5018 8.71313C82.1721 9.30139 80.9899 10.1839 80.0421 11.2957C78.1793 13.5471 77.2038 16.4151 77.3028 19.3494C77.3028 22.669 78.1374 25.3608 79.7924 27.3598C81.6114 29.5247 84.2866 30.6433 87.7253 30.6433C90.1026 30.7512 92.4414 30.0076 94.3305 28.5433C95.8607 27.1713 96.9678 25.3824 97.5194 23.3907L97.7191 22.7484H93.8382L93.7462 23.1309C93.4566 24.4333 92.6925 25.5775 91.6061 26.335C90.4496 27.1186 89.0805 27.5195 87.6897 27.4825C86.7488 27.5404 85.8076 27.383 84.9356 27.0219C84.0635 26.6608 83.2833 26.1053 82.653 25.3969C81.5614 24.0439 80.9643 22.3515 80.9623 20.6051H97.7191L97.7546 20.1071ZM87.7253 11.0431C88.6189 10.9963 89.5115 11.1603 90.3329 11.5222C91.1534 11.8842 91.8799 12.4341 92.4543 13.1287C93.4576 14.4147 94.0092 16.0012 94.024 17.6391H81.0622C81.3026 15.9938 81.9835 14.4466 83.031 13.1648C83.6035 12.4745 84.3234 11.9248 85.1366 11.5573C85.9498 11.1897 86.8348 11.0139 87.7253 11.0431Z" fill="#3B82F6"/>
<path d="M109.099 11.5942H113.871V8.03643H108.828V5.64774C108.828 1.90234 105.197 1.90234 105.197 1.90234V8.01478H101.709V11.5725H105.197V22.0943C105.149 23.2545 105.345 24.4119 105.773 25.4894C106.201 26.5669 106.851 27.54 107.679 28.3438C109.359 29.9092 111.583 30.7371 113.864 30.6459V27.1603C113.109 27.2149 112.353 27.0831 111.659 26.7764C110.966 26.4697 110.356 25.9971 109.884 25.3995C109.142 24.4174 108.76 23.2065 108.799 21.9716V11.5942H109.099Z" fill="#3B82F6"/>
<path d="M132.727 10.2517C131.893 9.46459 130.911 8.85273 129.841 8.4514C128.771 8.05008 127.633 7.86725 126.492 7.91347C124.713 7.85893 122.959 8.3467 121.456 9.31349V1H117.825V22.7652H121.456V16.5878C121.416 15.3563 121.796 14.1483 122.533 13.1672C123.036 12.61 123.647 12.165 124.329 11.8605C125.011 11.556 125.747 11.3987 126.492 11.3987C127.238 11.3987 127.975 11.556 128.656 11.8605C129.338 12.165 129.949 12.61 130.451 13.1672C131.186 14.1493 131.563 15.3571 131.522 16.5878V26.9075C131.522 30.6529 135.16 30.6529 135.16 30.6529V16.4796C135.207 15.3271 135.015 14.1774 134.596 13.1047C134.177 12.0319 133.54 11.06 132.727 10.2517Z" fill="#3B82F6"/>
<path d="M156.195 26.2063C155.756 27.1198 155.135 27.9343 154.371 28.6C153.605 29.271 152.715 29.7859 151.751 30.1157C150.691 30.4834 149.575 30.6645 148.453 30.6507C147.076 30.6768 145.711 30.3883 144.463 29.8071C143.334 29.2716 142.335 28.4969 141.535 27.5368C140.727 26.548 140.115 25.4145 139.731 24.1966C139.318 22.8784 139.112 21.504 139.121 20.1226C139.115 18.6482 139.313 17.1801 139.711 15.7604C140.08 14.4426 140.691 13.2052 141.514 12.1115C142.336 11.0521 143.386 10.1917 144.586 9.59439C145.946 8.94294 147.44 8.62106 148.947 8.65474C149.906 8.65158 150.86 8.80206 151.772 9.10056C152.652 9.38965 153.472 9.83581 154.192 10.4174C154.919 11.0103 155.522 11.7396 155.969 12.5642C156.466 13.4847 156.781 14.4934 156.894 15.5341H156.071C155.944 14.5912 155.639 13.6811 155.173 12.8523C154.761 12.1299 154.22 11.4903 153.575 10.9661C152.942 10.4626 152.222 10.0811 151.45 9.8413C150.639 9.59171 149.795 9.46681 148.947 9.47093C147.475 9.42525 146.016 9.75824 144.709 10.438C143.597 11.0377 142.643 11.8934 141.926 12.9346C141.219 13.9773 140.705 15.139 140.41 16.364C140.1 17.5882 139.941 18.8459 139.937 20.1088C139.932 21.36 140.12 22.6045 140.492 23.7988C140.837 24.925 141.385 25.9782 142.111 26.9058C142.824 27.8187 143.733 28.5595 144.771 29.0732C145.927 29.629 147.198 29.9017 148.481 29.8688C149.471 29.879 150.457 29.7213 151.395 29.4024C152.271 29.0979 153.082 28.6327 153.788 28.0307C154.516 27.4069 155.111 26.6425 155.536 25.7833C155.961 24.9241 156.208 23.9878 156.263 23.0307H157.086C156.988 24.1352 156.685 25.2119 156.195 26.2063Z" fill="#3B82F6"/>
<path d="M162.396 23.5239C162.761 24.7524 163.307 25.8383 164.037 26.7801C164.765 27.7226 165.662 28.4744 166.729 29.0335C167.796 29.5939 169.03 29.8738 170.434 29.8738C171.811 29.8738 173.033 29.5939 174.099 29.0335C175.165 28.4744 176.063 27.7226 176.792 26.7801C177.522 25.8383 178.069 24.7524 178.432 23.5239C178.796 22.2946 178.98 21.0112 178.98 19.6729C178.98 18.3621 178.796 17.0916 178.432 15.8625C178.069 14.6339 177.522 13.548 176.792 12.6055C176.063 11.6637 175.165 10.905 174.099 10.3323C173.033 9.75881 171.811 9.47204 170.434 9.47204C169.03 9.47204 167.796 9.75881 166.729 10.3323C165.662 10.905 164.765 11.6637 164.037 12.6055C163.307 13.548 162.761 14.6339 162.396 15.8625C162.032 17.0916 161.849 18.3621 161.849 19.6729C161.849 21.0112 162.032 22.2946 162.396 23.5239ZM161.646 15.5146C162.051 14.1901 162.652 13.0225 163.449 12.0122C164.245 11.0018 165.224 10.1889 166.384 9.57426C167.546 8.95965 168.896 8.65234 170.434 8.65234C171.947 8.65234 173.282 8.95965 174.445 9.57426C175.604 10.1889 176.583 11.0018 177.38 12.0122C178.175 13.0225 178.776 14.1901 179.183 15.5146C179.587 16.8399 179.789 18.2249 179.789 19.6729C179.789 21.1203 179.587 22.5066 179.183 23.8305C178.776 25.1557 178.175 26.3233 177.38 27.3337C176.583 28.3441 175.604 29.1501 174.445 29.7503C173.282 30.3512 171.932 30.6523 170.394 30.6523C168.881 30.6523 167.546 30.3512 166.384 29.7503C165.224 29.1501 164.245 28.3441 163.449 27.3337C162.652 26.3233 162.051 25.1557 161.646 23.8305C161.242 22.5066 161.04 21.1203 161.04 19.6729C161.04 18.2249 161.242 16.8399 161.646 15.5146Z" fill="#3B82F6"/>
<path d="M184.574 9.14364V14.4543H184.657C185.01 12.8143 185.907 11.3459 187.198 10.2926C188.659 9.1552 190.468 8.57699 192.309 8.66022C193.34 8.64873 194.366 8.81218 195.343 9.14364C196.24 9.44652 197.061 9.94654 197.746 10.6079C198.438 11.2909 198.974 12.1181 199.319 13.032C199.706 14.0967 199.894 15.2253 199.872 16.3599V30.6523H199.048V16.507C199.076 15.4143 198.893 14.3265 198.508 13.3053C198.199 12.495 197.713 11.7657 197.088 11.1713C196.462 10.577 195.712 10.133 194.893 9.87228C194.058 9.60534 193.186 9.47293 192.309 9.47993C191.153 9.44329 190.005 9.68332 188.958 10.1805C188.016 10.6477 187.188 11.3201 186.533 12.1493C185.869 13.0118 185.371 13.9935 185.065 15.0428C184.734 16.1562 184.569 17.3131 184.574 18.4758V30.6523H183.743V9.14364H184.574Z" fill="#3B82F6"/>
<path d="M204.659 9.14364V14.4543H204.742C205.095 12.8143 205.992 11.3459 207.284 10.2926C208.744 9.1552 210.554 8.57699 212.395 8.66022C213.426 8.64873 214.452 8.81218 215.428 9.14364C216.326 9.44652 217.146 9.94654 217.831 10.6079C218.523 11.2909 219.059 12.1181 219.404 13.032C219.792 14.0967 219.979 15.2253 219.958 16.3599V30.6523H219.133V16.507C219.162 15.4143 218.978 14.3265 218.593 13.3053C218.284 12.495 217.799 11.7657 217.173 11.1713C216.547 10.577 215.797 10.133 214.978 9.87228C214.143 9.60534 213.271 9.47293 212.395 9.47993C211.238 9.44329 210.09 9.68332 209.043 10.1805C208.101 10.6477 207.273 11.3201 206.619 12.1493C205.954 13.0118 205.456 13.9935 205.151 15.0428C204.82 16.1562 204.655 17.3131 204.659 18.4758V30.6523H203.828V9.14364H204.659Z" fill="#3B82F6"/>
<path d="M240.798 15.3501C240.447 14.1896 239.929 13.1724 239.239 12.2986C238.551 11.4241 237.694 10.7347 236.668 10.2299C235.642 9.7244 234.455 9.47197 233.106 9.47197C231.971 9.47197 230.912 9.69083 229.927 10.1271C228.942 10.5639 228.077 11.1991 227.336 12.0317C226.591 12.8651 225.991 13.8693 225.533 15.0428C225.074 16.2178 224.804 17.5416 224.724 19.0162H241.326C241.326 17.733 241.15 16.5107 240.798 15.3501ZM225.229 23.7887C225.54 25.0041 226.018 26.0618 226.667 26.9638C227.315 27.8643 228.152 28.5749 229.177 29.0935C230.203 29.6127 231.459 29.872 232.944 29.872C235.13 29.872 236.945 29.2917 238.389 28.1312C239.833 26.9699 240.731 25.2292 241.082 22.908H241.892C241.595 25.3663 240.637 27.2704 239.018 28.6223C237.398 29.9742 235.4 30.6505 233.024 30.6505C231.404 30.6772 230.021 30.4179 228.873 29.872C227.726 29.326 226.788 28.5544 226.061 27.557C225.331 26.5611 224.79 25.3862 224.439 24.0343C224.089 22.6824 223.914 21.2283 223.914 19.672C223.914 17.9243 224.17 16.3674 224.682 15.0017C225.195 13.6367 225.871 12.4824 226.707 11.54C227.544 10.5983 228.516 9.88147 229.623 9.38972C230.729 8.89858 231.863 8.65234 233.024 8.65234C234.644 8.65234 236.041 8.96649 237.215 9.5948C238.389 10.2231 239.347 11.0558 240.09 12.0935C240.832 13.132 241.372 14.3192 241.71 15.6574C242.047 16.9956 242.189 18.3887 242.135 19.8359H224.724C224.75 21.2557 224.919 22.5734 225.229 23.7887Z" fill="#3B82F6"/>
<path d="M263.173 26.2063C262.735 27.1198 262.114 27.9343 261.349 28.6C260.584 29.271 259.694 29.7859 258.731 30.1157C257.67 30.4834 256.554 30.6645 255.432 30.6507C254.055 30.6768 252.69 30.3883 251.442 29.8071C250.313 29.2716 249.314 28.4969 248.514 27.5368C247.706 26.548 247.094 25.4145 246.711 24.1966C246.297 22.8784 246.092 21.504 246.101 20.1226C246.094 18.6482 246.292 17.1801 246.69 15.7604C247.059 14.4426 247.67 13.2052 248.493 12.1115C249.314 11.0521 250.365 10.1917 251.565 9.59439C252.924 8.94294 254.419 8.62106 255.926 8.65474C256.885 8.65158 257.839 8.80206 258.751 9.10056C259.63 9.38965 260.451 9.83581 261.171 10.4174C261.898 11.0103 262.501 11.7396 262.948 12.5642C263.445 13.4847 263.76 14.4934 263.873 15.5341H263.051C262.923 14.5912 262.619 13.6811 262.152 12.8523C261.741 12.1299 261.199 11.4903 260.555 10.9661C259.921 10.4626 259.2 10.0811 258.428 9.8413C257.619 9.59171 256.775 9.46681 255.926 9.47093C254.453 9.42525 252.994 9.75824 251.689 10.438C250.576 11.0377 249.622 11.8934 248.905 12.9346C248.197 13.9773 247.684 15.139 247.39 16.364C247.079 17.5882 246.92 18.8459 246.916 20.1088C246.911 21.36 247.099 22.6045 247.472 23.7988C247.816 24.925 248.364 25.9782 249.09 26.9058C249.803 27.8187 250.712 28.5595 251.75 29.0732C252.906 29.629 254.178 29.9017 255.46 29.8688C256.45 29.879 257.436 29.7213 258.374 29.4024C259.25 29.0979 260.061 28.6327 260.767 28.0307C261.495 27.4069 262.09 26.6425 262.515 25.7833C262.94 24.9241 263.187 23.9878 263.242 23.0307H264.065C263.967 24.1352 263.664 25.2119 263.173 26.2063Z" fill="#3B82F6"/>
<path d="M272.684 26.4928C272.659 27.1257 272.749 27.7579 272.951 28.3571C273.096 28.7396 273.331 29.08 273.636 29.3482C273.895 29.5632 274.209 29.7002 274.541 29.7432C274.865 29.7847 275.193 29.8055 275.52 29.8056C275.932 29.8056 276.301 29.8056 276.623 29.8056C276.856 29.8054 277.086 29.7704 277.309 29.7016V30.5263L276.589 30.6095C276.363 30.6095 275.904 30.6511 275.301 30.6511C274.417 30.6744 273.553 30.3742 272.869 29.8056C272.184 29.2373 271.869 28.1977 271.869 26.68V10.1857H268.019V9.35401H271.869V2.65234H272.684V9.35401H277.432V10.1857H272.684V26.4928Z" fill="#3B82F6"/>
<path d="M282.742 23.5239C283.106 24.7524 283.654 25.8383 284.382 26.7801C285.111 27.7226 286.007 28.4744 287.075 29.0335C288.142 29.5939 289.375 29.8738 290.781 29.8738C292.158 29.8738 293.379 29.5939 294.445 29.0335C295.512 28.4744 296.41 27.7226 297.138 26.7801C297.868 25.8383 298.414 24.7524 298.778 23.5239C299.143 22.2946 299.326 21.0112 299.326 19.6729C299.326 18.3621 299.143 17.0916 298.778 15.8625C298.414 14.6339 297.868 13.548 297.138 12.6055C296.41 11.6637 295.512 10.905 294.445 10.3323C293.379 9.75881 292.158 9.47204 290.781 9.47204C289.375 9.47204 288.142 9.75881 287.075 10.3323C286.007 10.905 285.111 11.6637 284.382 12.6055C283.654 13.548 283.106 14.6339 282.742 15.8625C282.378 17.0916 282.195 18.3621 282.195 19.6729C282.195 21.0112 282.378 22.2946 282.742 23.5239ZM281.992 15.5146C282.397 14.1901 282.998 13.0225 283.794 12.0122C284.591 11.0018 285.57 10.1889 286.731 9.57426C287.892 8.95965 289.242 8.65234 290.781 8.65234C292.292 8.65234 293.628 8.95965 294.79 9.57426C295.95 10.1889 296.929 11.0018 297.725 12.0122C298.522 13.0225 299.122 14.1901 299.528 15.5146C299.934 16.8399 300.134 18.2249 300.134 19.6729C300.134 21.1203 299.934 22.5066 299.528 23.8305C299.122 25.1557 298.522 26.3233 297.725 27.3337C296.929 28.3441 295.95 29.1501 294.79 29.7503C293.628 30.3512 292.279 30.6523 290.739 30.6523C289.227 30.6523 287.892 30.3512 286.731 29.7503C285.57 29.1501 284.591 28.3441 283.794 27.3337C282.998 26.3233 282.397 25.1557 281.992 23.8305C281.588 22.5066 281.386 21.1203 281.386 19.6729C281.386 18.2249 281.588 16.8399 281.992 15.5146Z" fill="#3B82F6"/>
<path d="M304.088 30.6523V9.15819H304.912V14.4722H304.996C305.188 13.6701 305.495 12.901 305.909 12.1898C306.332 11.4658 306.895 10.8349 307.563 10.3344C308.298 9.77564 309.126 9.3515 310.006 9.08118C311.085 8.7561 312.21 8.61419 313.335 8.66109V9.49426C312.043 9.38167 310.743 9.5908 309.549 10.1034C308.533 10.5573 307.634 11.2454 306.926 12.1128C306.226 12.9807 305.705 13.9835 305.397 15.0603C305.065 16.1705 304.897 17.3241 304.898 18.484V30.6523H304.088Z" fill="#3B82F6"/>
</g>
<defs>
<clipPath id="clip0_42_3767">
<rect width="258" height="30" fill="white" transform="translate(56 1)"/>
</clipPath>
</defs>
</svg>
