<svg width="32" height="32" viewBox="0 0 32 32" fill="none" xmlns="http://www.w3.org/2000/svg">
<g clip-path="url(#clip0_42_3874)">
<path d="M19 3C19 2.20435 18.6839 1.44129 18.1213 0.87868C17.5587 0.31607 16.7956 0 16 0C15.2044 0 14.4413 0.31607 13.8787 0.87868C13.3161 1.44129 13 2.20435 13 3C13 3.79565 13.3161 4.55871 13.8787 5.12132C14.4413 5.68393 15.2044 6 16 6C16.7956 6 17.5587 5.68393 18.1213 5.12132C18.6839 4.55871 19 3.79565 19 3ZM19 29C19 28.2044 18.6839 27.4413 18.1213 26.8787C17.5587 26.3161 16.7956 26 16 26C15.2044 26 14.4413 26.3161 13.8787 26.8787C13.3161 27.4413 13 28.2044 13 29C13 29.7956 13.3161 30.5587 13.8787 31.1213C14.4413 31.6839 15.2044 32 16 32C16.7956 32 17.5587 31.6839 18.1213 31.1213C18.6839 30.5587 19 29.7956 19 29ZM3 19C3.79565 19 4.55871 18.6839 5.12132 18.1213C5.68393 17.5587 6 16.7956 6 16C6 15.2044 5.68393 14.4413 5.12132 13.8787C4.55871 13.3161 3.79565 13 3 13C2.20435 13 1.44129 13.3161 0.87868 13.8787C0.31607 14.4413 0 15.2044 0 16C0 16.7956 0.31607 17.5587 0.87868 18.1213C1.44129 18.6839 2.20435 19 3 19ZM32 16C32 15.2044 31.6839 14.4413 31.1213 13.8787C30.5587 13.3161 29.7956 13 29 13C28.2044 13 27.4413 13.3161 26.8787 13.8787C26.3161 14.4413 26 15.2044 26 16C26 16.7956 26.3161 17.5587 26.8787 18.1213C27.4413 18.6839 28.2044 19 29 19C29.7956 19 30.5587 18.6839 31.1213 18.1213C31.6839 17.5587 32 16.7956 32 16ZM8.93125 27.3125C9.2099 27.0339 9.43093 26.703 9.58174 26.339C9.73254 25.9749 9.81016 25.5847 9.81016 25.1906C9.81016 24.7966 9.73254 24.4063 9.58174 24.0423C9.43093 23.6782 9.2099 23.3474 8.93125 23.0688C8.6526 22.7901 8.3218 22.5691 7.95773 22.4183C7.59365 22.2675 7.20344 22.1898 6.80937 22.1898C6.01352 22.1898 5.25026 22.506 4.6875 23.0688C4.12474 23.6315 3.80859 24.3948 3.80859 25.1906C3.80859 25.9865 4.12474 26.7497 4.6875 27.3125C5.25026 27.8753 6.01352 28.1914 6.80937 28.1914C7.60523 28.1914 8.36849 27.8753 8.93125 27.3125ZM8.93125 8.925C9.22374 8.6496 9.45794 8.31825 9.61995 7.95061C9.78196 7.58298 9.86847 7.18655 9.87437 6.78485C9.88026 6.38315 9.80541 5.98435 9.65426 5.61213C9.50311 5.2399 9.27873 4.90182 8.99445 4.61795C8.71016 4.33409 8.37175 4.11021 7.9993 3.95961C7.62685 3.809 7.22795 3.73474 6.82626 3.74123C6.42456 3.74771 6.02826 3.83482 5.66087 3.99737C5.29348 4.15992 4.96247 4.3946 4.6875 4.6875C4.12474 5.25026 3.80859 6.01352 3.80859 6.80937C3.80859 7.60523 4.12474 8.36849 4.6875 8.93125C5.25026 9.49401 6.01352 9.81016 6.80937 9.81016C7.60523 9.81016 8.36849 9.49401 8.93125 8.93125V8.925ZM23.0688 27.3125C23.3474 27.5911 23.6782 27.8122 24.0423 27.963C24.4063 28.1138 24.7966 28.1914 25.1906 28.1914C25.5847 28.1914 25.9749 28.1138 26.339 27.963C26.703 27.8122 27.0339 27.5911 27.3125 27.3125C27.5911 27.0339 27.8122 26.703 27.963 26.339C28.1138 25.9749 28.1914 25.5847 28.1914 25.1906C28.1914 24.7966 28.1138 24.4063 27.963 24.0423C27.8122 23.6782 27.5911 23.3474 27.3125 23.0688C27.0339 22.7901 26.703 22.5691 26.339 22.4183C25.9749 22.2675 25.5847 22.1898 25.1906 22.1898C24.7966 22.1898 24.4063 22.2675 24.0423 22.4183C23.6782 22.5691 23.3474 22.7901 23.0688 23.0688C22.7901 23.3474 22.5691 23.6782 22.4183 24.0423C22.2675 24.4063 22.1898 24.7966 22.1898 25.1906C22.1898 25.5847 22.2675 25.9749 22.4183 26.339C22.5691 26.703 22.7901 27.0339 23.0688 27.3125Z" fill="url(#paint0_linear_42_3874)"/>
</g>
<defs>
<linearGradient id="paint0_linear_42_3874" x1="16" y1="0" x2="16" y2="32" gradientUnits="userSpaceOnUse">
<stop stop-color="#1D4ED8"/>
<stop offset="1" stop-color="#93C5FD"/>
</linearGradient>
<clipPath id="clip0_42_3874">
<rect width="32" height="32" fill="white"/>
</clipPath>
</defs>
</svg>
