<svg width="40" height="34" viewBox="0 0 40 34" fill="none" xmlns="http://www.w3.org/2000/svg">
<path d="M6.37613 9.54731C7.88676 8.03383 9.50407 7.40243 11.3232 7.62156C12.8014 7.83476 14.1624 8.54682 15.1806 9.63958L24.0167 18.4613C27.2311 21.6758 30.3793 18.5276 30.3793 18.5276L18.222 6.37038C16.0339 4.18224 13.5373 3.10115 10.8014 3.15016C8.02227 3.23376 5.61218 4.34368 3.38655 6.55778C1.16095 8.7718 0.0913879 11.1416 0.00490079 13.8861C-0.0815869 16.6307 0.97644 19.1705 3.19628 21.3817L15.3593 33.5332L18.5045 30.3908L6.45399 18.3402C5.36265 17.3193 4.65782 15.9525 4.459 14.4714C4.23702 12.6724 4.86549 11.0464 6.37613 9.54731ZM33.34 24.6682C31.8265 26.1788 30.2092 26.8102 28.3929 26.5911C26.9168 26.387 25.5553 25.6829 24.5356 24.5961L15.6966 15.7514C12.4822 12.5398 9.33399 15.6879 9.33399 15.6879L21.4913 27.8423C23.6823 30.0333 26.176 31.1115 28.9119 31.0654C31.6938 30.9818 34.1011 29.869 36.3267 27.6549C38.5523 25.4408 39.6219 23.0711 39.7026 20.3265C39.7833 17.582 38.731 15.0451 36.5112 12.831L24.3539 0.667969L21.2087 3.81322L33.2622 15.8638C34.3516 16.8845 35.0554 18.2501 35.2543 19.7298C35.4647 21.5431 34.8506 23.1547 33.34 24.6682Z" fill="#1D4ED8"/>
</svg>
